<!-- Generated by IcoMoon.io -->
<svg version="1.1" xmlns="http://www.w3.org/2000/svg" width="32" height="32" viewBox="0 0 32 32">
<title>clock</title>
<path fill="#f7654a" d="M16.004 0.5c-8.563 0-15.501 6.938-15.501 15.501s6.938 15.501 15.501 15.501 15.501-6.938 15.501-15.501-6.938-15.501-15.501-15.501zM16.004 28.502c-0.013 0-0.028 0-0.043 0-6.88 0-12.457-5.577-12.457-12.457 0-0.015 0-0.030 0-0.046v0.002c0-6.876 5.563-12.501 12.501-12.501 6.876 0 12.501 5.626 12.501 12.501 0 6.938-5.626 12.501-12.501 12.501zM19.817 22.001c0.375 0.25 0.812 0.187 1.062-0.187l1.188-1.563c0.25-0.375 0.187-0.813-0.188-1.063l-4.125-3.062v-8.877c0-0.375-0.375-0.75-0.75-0.75h-2c-0.437 0-0.75 0.375-0.75 0.75v10.313c0 0.187 0.063 0.437 0.25 0.562l5.313 3.876z"></path>
</svg>
