<!-- Generated by IcoMoon.io -->
<svg version="1.1" xmlns="http://www.w3.org/2000/svg" width="32" height="32" viewBox="0 0 32 32">
<title>mail-mini</title>
<path d="M32.005 11.027c-0.53 0.577-1.116 1.088-1.752 1.531l-0.035 0.023c-2.982 2.018-5.981 4.054-8.894 6.161-1.499 1.108-3.357 2.466-5.304 2.466h-0.036c-1.947 0-3.805-1.358-5.304-2.466-2.912-2.125-5.912-4.143-8.876-6.161-0.681-0.461-1.272-0.973-1.798-1.547l-0.007-0.007v14.182c0 1.57 1.286 2.857 2.857 2.857h26.29c1.572 0 2.857-1.286 2.857-2.857v-14.182zM32.005 5.776c0-1.572-1.303-2.857-2.857-2.857h-26.29c-1.911 0-2.857 1.501-2.857 3.248 0 1.625 1.805 3.645 3.072 4.5 2.768 1.929 5.572 3.858 8.339 5.805 1.161 0.804 3.126 2.447 4.573 2.447h0.036c1.447 0 3.412-1.643 4.573-2.447 2.767-1.947 5.571-3.876 8.357-5.805 1.572-1.086 3.055-2.891 3.055-4.891z"></path>
</svg>
