<!-- Generated by IcoMoon.io -->
<svg version="1.1" xmlns="http://www.w3.org/2000/svg" width="32" height="32" viewBox="0 0 32 32">
<title>mail</title>
<path fill="#f7654a" d="M28.74 4.245h-25.474c-1.653 0-2.939 1.348-2.939 2.939v17.636c0 1.653 1.286 2.939 2.939 2.939h25.474c1.592 0 2.939-1.286 2.939-2.939v-17.636c0-1.592-1.348-2.939-2.939-2.939zM28.74 7.184v2.511c-1.408 1.163-3.613 2.878-8.267 6.552-1.041 0.796-3.062 2.756-4.47 2.694-1.47 0.061-3.491-1.898-4.532-2.694-4.653-3.674-6.858-5.389-8.205-6.552v-2.511h25.474zM3.266 24.82v-11.329c1.347 1.103 3.368 2.694 6.368 5.082 1.348 1.041 3.736 3.368 6.368 3.307 2.572 0.061 4.899-2.266 6.307-3.307 0.105-0.137 2.197-1.802 4.296-3.458l2.133-1.624v11.328h-25.474z"></path>
</svg>
