<!-- Generated by IcoMoon.io -->
<svg version="1.1" xmlns="http://www.w3.org/2000/svg" width="24" height="32" viewBox="0 0 24 32">
<title>map</title>
<path fill="#f7654a" d="M12.085 0c-6.552 0-11.757 5.327-11.757 11.757 0 4.409 1.408 5.756 9.246 18.248 0.524 0.833 1.438 1.378 2.48 1.378s1.956-0.545 2.473-1.366l0.007-0.012c7.838-12.493 9.308-13.839 9.308-18.248 0-6.491-5.327-11.757-11.757-11.757zM12.085 28.413c-7.838-12.492-8.818-13.288-8.818-16.656 0-4.837 3.919-8.818 8.818-8.818 4.837 0 8.818 3.98 8.818 8.818 0 3.368-0.98 4.042-8.818 16.656zM7.187 11.757c0 2.756 2.143 4.899 4.899 4.899 2.694 0 4.899-2.143 4.899-4.899 0-2.694-2.204-4.899-4.899-4.899-2.756 0-4.899 2.204-4.899 4.899z"></path>
</svg>
