<!-- Generated by IcoMoon.io -->
<svg version="1.1" xmlns="http://www.w3.org/2000/svg" width="32" height="32" viewBox="0 0 32 32">
<title>menu</title>
<path fill="#fff" d="M31.355 25.801c-0.004-0.72-0.586-1.303-1.306-1.308h-28.743c-0.72 0.005-1.303 0.589-1.306 1.309v2.613c0 0.715 0.591 1.306 1.306 1.306h28.742c0.719-0.005 1.301-0.587 1.306-1.306v-2.613zM31.355 15.348c-0.005-0.719-0.587-1.301-1.306-1.306h-28.743c-0.719 0.005-1.301 0.587-1.306 1.306v2.615c0 0.715 0.591 1.306 1.306 1.306h28.742c0.719-0.005 1.301-0.587 1.306-1.306v-2.616zM31.355 4.897c-0.005-0.719-0.587-1.301-1.306-1.306h-28.743c-0.719 0.005-1.301 0.587-1.306 1.306v2.616c0 0.713 0.591 1.306 1.306 1.306h28.742c0.719-0.005 1.301-0.587 1.306-1.306v-2.616z"></path>
</svg>
