<!-- Generated by IcoMoon.io -->
<svg version="1.1" xmlns="http://www.w3.org/2000/svg" width="39" height="32" viewBox="0 0 39 32">
<title>q</title>
<path fill="#f7654a" d="M0.238 31.704c0-3.439 0.073-7.499 0.219-12.181 0.219-6.658 1.28-11.486 3.183-14.486s5.268-4.499 10.096-4.499l1.317 5.597c-2.634 0.073-4.426 0.951-5.377 2.634-0.878 1.61-1.317 4.024-1.317 7.243h7.682v15.693h-15.803zM22.735 31.704c0-3.439 0.073-7.499 0.219-12.181 0.219-6.658 1.28-11.486 3.183-14.486s5.268-4.499 10.096-4.499l1.317 5.597c-2.634 0.073-4.426 0.951-5.377 2.634-0.878 1.61-1.317 4.024-1.317 7.243h7.682v15.693h-15.803z"></path>
</svg>
