<svg aria-hidden="true" style="position: absolute; width: 0; height: 0; overflow: hidden;" version="1.1" xmlns="http://www.w3.org/2000/svg" xmlns:xlink="http://www.w3.org/1999/xlink">
<defs>
<symbol id="icon-clock" viewBox="0 0 32 32">
<path fill="#f7654a" style="fill: var(--color1, #f7654a)" d="M16.004 0.5c-8.563 0-15.501 6.938-15.501 15.501s6.938 15.501 15.501 15.501 15.501-6.938 15.501-15.501-6.938-15.501-15.501-15.501zM16.004 28.502c-0.013 0-0.028 0-0.043 0-6.88 0-12.457-5.577-12.457-12.457 0-0.015 0-0.030 0-0.046v0.002c0-6.876 5.563-12.501 12.501-12.501 6.876 0 12.501 5.626 12.501 12.501 0 6.938-5.626 12.501-12.501 12.501zM19.817 22.001c0.375 0.25 0.812 0.187 1.062-0.187l1.188-1.563c0.25-0.375 0.187-0.813-0.188-1.063l-4.125-3.062v-8.877c0-0.375-0.375-0.75-0.75-0.75h-2c-0.437 0-0.75 0.375-0.75 0.75v10.313c0 0.187 0.063 0.437 0.25 0.562l5.313 3.876z"></path>
</symbol>
<symbol id="icon-mail" viewBox="0 0 32 32">
<path fill="#f7654a" style="fill: var(--color1, #f7654a)" d="M28.74 4.245h-25.474c-1.653 0-2.939 1.348-2.939 2.939v17.636c0 1.653 1.286 2.939 2.939 2.939h25.474c1.592 0 2.939-1.286 2.939-2.939v-17.636c0-1.592-1.348-2.939-2.939-2.939zM28.74 7.184v2.511c-1.408 1.163-3.613 2.878-8.267 6.552-1.041 0.796-3.062 2.756-4.47 2.694-1.47 0.061-3.491-1.898-4.532-2.694-4.653-3.674-6.858-5.389-8.205-6.552v-2.511h25.474zM3.266 24.82v-11.329c1.347 1.103 3.368 2.694 6.368 5.082 1.348 1.041 3.736 3.368 6.368 3.307 2.572 0.061 4.899-2.266 6.307-3.307 0.105-0.137 2.197-1.802 4.296-3.458l2.133-1.624v11.328h-25.474z"></path>
</symbol>
<symbol id="icon-mail-mini" viewBox="0 0 32 32">
<path d="M32.005 11.027c-0.53 0.577-1.116 1.088-1.752 1.531l-0.035 0.023c-2.982 2.018-5.981 4.054-8.894 6.161-1.499 1.108-3.357 2.466-5.304 2.466h-0.036c-1.947 0-3.805-1.358-5.304-2.466-2.912-2.125-5.912-4.143-8.876-6.161-0.681-0.461-1.272-0.973-1.798-1.547l-0.007-0.007v14.182c0 1.57 1.286 2.857 2.857 2.857h26.29c1.572 0 2.857-1.286 2.857-2.857v-14.182zM32.005 5.776c0-1.572-1.303-2.857-2.857-2.857h-26.29c-1.911 0-2.857 1.501-2.857 3.248 0 1.625 1.805 3.645 3.072 4.5 2.768 1.929 5.572 3.858 8.339 5.805 1.161 0.804 3.126 2.447 4.573 2.447h0.036c1.447 0 3.412-1.643 4.573-2.447 2.767-1.947 5.571-3.876 8.357-5.805 1.572-1.086 3.055-2.891 3.055-4.891z"></path>
</symbol>
<symbol id="icon-map" viewBox="0 0 24 32">
<path fill="#f7654a" style="fill: var(--color1, #f7654a)" d="M12.085 0c-6.552 0-11.757 5.327-11.757 11.757 0 4.409 1.408 5.756 9.246 18.248 0.524 0.833 1.438 1.378 2.48 1.378s1.956-0.545 2.473-1.366l0.007-0.012c7.838-12.493 9.308-13.839 9.308-18.248 0-6.491-5.327-11.757-11.757-11.757zM12.085 28.413c-7.838-12.492-8.818-13.288-8.818-16.656 0-4.837 3.919-8.818 8.818-8.818 4.837 0 8.818 3.98 8.818 8.818 0 3.368-0.98 4.042-8.818 16.656zM7.187 11.757c0 2.756 2.143 4.899 4.899 4.899 2.694 0 4.899-2.143 4.899-4.899 0-2.694-2.204-4.899-4.899-4.899-2.756 0-4.899 2.204-4.899 4.899z"></path>
</symbol>
<symbol id="icon-menu" viewBox="0 0 32 32">
<path d="M31.355 25.801c-0.004-0.72-0.586-1.303-1.306-1.308h-28.743c-0.72 0.005-1.303 0.589-1.306 1.309v2.613c0 0.715 0.591 1.306 1.306 1.306h28.742c0.719-0.005 1.301-0.587 1.306-1.306v-2.613zM31.355 15.348c-0.005-0.719-0.587-1.301-1.306-1.306h-28.743c-0.719 0.005-1.301 0.587-1.306 1.306v2.615c0 0.715 0.591 1.306 1.306 1.306h28.742c0.719-0.005 1.301-0.587 1.306-1.306v-2.616zM31.355 4.897c-0.005-0.719-0.587-1.301-1.306-1.306h-28.743c-0.719 0.005-1.301 0.587-1.306 1.306v2.616c0 0.713 0.591 1.306 1.306 1.306h28.742c0.719-0.005 1.301-0.587 1.306-1.306v-2.616z"></path>
</symbol>
<symbol id="icon-tel" viewBox="0 0 32 32">
<path fill="#f7654a" style="fill: var(--color1, #f7654a)" d="M29.475 1.733l-5.756-1.286c-1.347-0.305-2.694 0.368-3.183 1.593l-2.694 6.246c-0.49 1.102-0.184 2.449 0.796 3.245l2.449 2.021c-1.715 3.184-4.409 5.817-7.593 7.593l-2.020-2.449c-0.797-0.98-2.144-1.286-3.246-0.796l-6.246 2.634c-1.225 0.549-1.899 1.897-1.592 3.244l1.286 5.756c0.305 1.285 1.47 2.143 2.754 2.143 15.003 0 27.25-12.125 27.25-27.188 0-1.286-0.918-2.449-2.204-2.756zM4.552 28.738l-1.286-5.512 6.001-2.572 3.429 4.164c6.061-2.878 9.185-6.001 12.063-12.063l-4.164-3.429 2.572-6.001 5.572 1.285c-0.061 13.289-10.9 24.066-24.188 24.127z"></path>
</symbol>
</defs>
</svg>
