<!-- Generated by IcoMoon.io -->
<svg version="1.1" xmlns="http://www.w3.org/2000/svg" width="32" height="32" viewBox="0 0 32 32">
<title>tel</title>
<path fill="#f7654a" d="M29.475 1.733l-5.756-1.286c-1.347-0.305-2.694 0.368-3.183 1.593l-2.694 6.246c-0.49 1.102-0.184 2.449 0.796 3.245l2.449 2.021c-1.715 3.184-4.409 5.817-7.593 7.593l-2.020-2.449c-0.797-0.98-2.144-1.286-3.246-0.796l-6.246 2.634c-1.225 0.549-1.899 1.897-1.592 3.244l1.286 5.756c0.305 1.285 1.47 2.143 2.754 2.143 15.003 0 27.25-12.125 27.25-27.188 0-1.286-0.918-2.449-2.204-2.756zM4.552 28.738l-1.286-5.512 6.001-2.572 3.429 4.164c6.061-2.878 9.185-6.001 12.063-12.063l-4.164-3.429 2.572-6.001 5.572 1.285c-0.061 13.289-10.9 24.066-24.188 24.127z"></path>
</svg>
