<!-- Generated by IcoMoon.io -->
<svg version="1.1" xmlns="http://www.w3.org/2000/svg" width="32" height="32" viewBox="0 0 32 32">
<title>hm</title>
<path fill="#cf4037" d="M12.617 14.931c0.26-0.202 0.579-0.26 0.867-0.376 0.261-0.145 0.348-0.435 0.261-0.723-0.029-0.116-0.087-0.203-0.203-0.232-0.434-0.116-0.81 0.116-1.244 0.058-0.087-0.029-0.174-0.087-0.174-0.174 0.058-0.318 0.145-0.636 0.261-0.955 0.665-1.62 1.447-3.153 2.141-4.744 0.145-0.404 0.435-0.81 0.29-1.244-0.116-0.406-0.665-0.29-0.983-0.174-0.378 0.174-0.696 0.404-1.044 0.606-0.203 0.116-0.463 0.058-0.665 0.174-0.607 0.435-0.839 1.1-1.128 1.708-0.347 0.665-0.579 1.331-0.868 1.996-0.492 1.158-1.070 2.257-1.591 3.414l-2.813 0.635s2.001-4.686 2.84-7.088c0.029-0.116 0-0.29-0.087-0.375-0.319-0.261-0.752-0.116-1.099 0-0.636 1.476-1.25 2.933-1.909 4.428-0.434 0.983-0.687 1.453-1.063 2.466-0.058 0.145-0.326 0.977-0.326 0.977-1.624 0.597-2.45 0.815-3.733 1.215-0.086 0.375-0.289 0.695-0.347 1.071 0.318 0.029 0.694 0 0.954 0.116 0.203 0.087 0.087 0.433 0.232 0.608 0.319 0.261 0.723 0.348 0.984 0.695 0.145 0.174 0.174 0.404 0.174 0.637-0.029 0.637-0.347 1.215-0.55 1.851-0.39 1.256-0.676 2.073-0.978 2.881l0.138-0.422c-0.087 0.232 0.058 0.491 0.116 0.723 0.087 0.145 0.261 0.231 0.433 0.116 0.145-0.116 0.232-0.29 0.319-0.433 0.29-0.578 0.492-1.157 0.723-1.736 0.491-1.331 0.897-2.662 1.389-3.993 0.983-0.203 1.938-0.491 2.952-0.491 0.058 0 0.029 0.145 0.029 0.232-0.492 2.025-1.186 3.791-1.649 5.788-0.058 0.174-0.116 0.404-0.029 0.491 0.55 0.549 1.012 1.099 1.447 1.765 0.029 0.029 0.087 0.058 0.145 0.058 0.203 0.029 0.434 0.029 0.607 0.029 0.232-0.029 0.261-0.377 0.348-0.579 0.781-1.822 1.244-3.675 1.822-5.556 0.203-0.608 0.405-1.186 0.579-1.822 0.145-0.578 0.29-1.128 0.521-1.677 0.087-0.174 0.232-0.29 0.376-0.406 0.49-0.554 0.924-1.102 1.533-1.537zM31.743 5.583c-0.348-0.521-1.1-0.404-1.534-0.087-1.157 0.868-1.389 2.257-1.938 3.472-0.145 0.29-0.319 0.55-0.433 0.81-1.36 2.836-2.431 5.672-3.762 8.508-0.299 0.596-0.506 1.23-0.752 1.938-0.029 0.029-0.058 0.029-0.087 0.058-0.087-0.174-0.348-0.29-0.319-0.491 0.145-2.459 0.491-4.832 0.81-7.322 0.087-0.579 0.174-1.099 0.29-1.678 0.116-0.694 0.29-1.273 0.433-1.967 0.116-0.492 0.145-0.954 0.174-1.447 0-0.492 0.029-1.042-0.174-1.505-0.145-0.348-0.433-0.781-0.897-0.665-0.174 0.058-0.318 0.203-0.491 0.261-0.491 0.116-1.157-0.029-1.389 0.492-1.794 4.283-3.178 8.609-4.455 13.079-0.174 0.608-0.404 1.157-0.491 1.794-0.087 0.578-0.232 1.099-0.348 1.679-0.116 0.666-0.375 1.273-0.434 1.938-0.058 0.347-0.058 0.666-0.030 1.012 0.109 0.319 0.731-0.044 0.926-0.318 0.087-0.637 0.232-1.244 0.377-1.909 0.261-1.36 0.666-2.604 1.070-3.906 0.755-2.416 1.462-4.316 2.25-6.173l-0.167 0.443c0.058-0.174 0.087-0.406 0.29-0.55 0 1.273-0.232 2.517-0.261 3.791-0.029 1.938-0.116 3.848-0.116 5.788 0 0.203 0.203 0.318 0.348 0.462 0.578 0.462 1.138 0.877 1.466 1.543 0.064 0.129 0.271-0.097 0.386-0.212 0.29-0.319 0.52-0.695 0.666-1.071 0.318-0.752 0.608-1.476 0.926-2.228 1.070-2.488 2.141-4.948 3.385-7.349 0.029 0.029 0.058 0.058 0.058 0.087-0.375 3.762-1.099 7.38-1.302 11.112 0 0.203 0.232 0.348 0.318 0.52 0.203 0.491 0.433 0.984 0.897 1.244 0.348 0.174 0.81 0.029 0.926-0.319 0.058-0.261 0.058-0.549 0.087-0.839 0.058-0.29 0.145-0.578 0.174-0.868 0.116-0.752 0.261-1.447 0.404-2.228 0.203-1.215 0.404-2.315 0.637-3.53 0.752-3.993 1.505-7.581 2.228-11.574 0.115-0.606 0.231-1.272-0.145-1.793zM14.989 19.865c-0.399-0.133-0.777 0.36-1.012 0.622-0.145-0.261-0.261-0.666-0.058-0.868 0.407-0.407 0.567-0.722 0.377-1.331-0.174-0.608-0.955-0.752-1.505-0.549-0.396 0.138-0.552 0.677-0.515 1.164 0.014 0.2 0.061 0.391 0.138 0.544 0.058 0.116 0.116 0.318 0.203 0.433-0.373 0.102-0.973 0.822-1.338 1.573-0.187 0.386-0.312 0.78-0.312 1.103 0 0.608 0.854 1.012 1.36 0.853 0.341-0.107 0.579-0.347 0.897-0.52 0.29 0.231 0.492 0.549 0.839 0.781 0.030 0 0.087 0 0.087-0.029 0.116-0.578-0.145-1.157 0.116-1.65 0.203-0.347 0.521-0.578 0.752-0.926 0.242-0.364 0.377-1.079-0.030-1.199zM13.021 21.847c-0.029 0.232-0.232 0.319-0.463 0.375-0.116 0.029-0.232-0.029-0.319-0.145-0.043-0.069-0.068-0.153-0.068-0.242 0-0.045 0.006-0.088 0.018-0.129l-0.001 0.003c0.032-0.113 0.079-0.212 0.14-0.301l-0.002 0.003c0.087-0.145 0.293-0.242 0.463-0.174 0.29 0.117 0.29 0.378 0.232 0.609zM13.426 19.156c-0.142-0.036-0.232-0.186-0.286-0.339-0.027-0.077-0.049-0.168-0.060-0.262l-0.001-0.006c-0.017-0.146 0.116-0.273 0.261-0.261 0.167 0.015 0.405 0.116 0.376 0.348-0.029 0.203-0.058 0.549-0.29 0.52z"></path>
</svg>
