<!-- Generated by IcoMoon.io -->
<svg version="1.1" xmlns="http://www.w3.org/2000/svg" width="23" height="32" viewBox="0 0 23 32">
<title>khan</title>
<path fill="#23282e" d="M5.698 26.63l-0.087 0.042 0.086-0.044-0.68-1.368c-0.092-0.18-0.192-0.285-0.27-0.345 0.072-0.067 0.168-0.175 0.26-0.343l1.289-2.352h-1.311l-1.109 2.062c-0.035 0.058-0.068 0.082-0.12 0.101-0.053 0.018-0.129 0.022-0.225 0.022h-0.475v-1.573c0-0.19-0.040-0.348-0.149-0.458-0.11-0.11-0.269-0.153-0.463-0.153h-0.589v5.563h1.201v-2.344h0.415c0.105 0 0.192 0.003 0.252 0.022 0.061 0.020 0.095 0.043 0.131 0.108l0.876 1.759c0.090 0.183 0.193 0.306 0.333 0.375 0.141 0.068 0.299 0.079 0.503 0.080h0.727l-0.074-0.143c-0.001-0.001-0.447-0.856-0.52-1.010zM10.903 22.22h-0.476c-0.19-0-0.349 0.042-0.459 0.152s-0.153 0.268-0.152 0.459v1.664h-1.782v-1.664c0-0.19-0.040-0.348-0.149-0.458-0.11-0.11-0.269-0.153-0.463-0.153h-0.573v5.562h1.185v-2.253h1.782v2.253h1.185v-5.562h-0.098zM13.795 23.731c0.038 0.149 0.084 0.317 0.127 0.447l0.418 1.217h-1.089l0.417-1.217c0.044-0.131 0.089-0.299 0.127-0.447zM14.385 22.22h-1.173l-0.023 0.064-1.998 5.498h0.736c0.196 0 0.346-0.024 0.467-0.109s0.19-0.217 0.253-0.393l0.31-0.873h1.677l0.31 0.873c0.063 0.177 0.135 0.309 0.258 0.394s0.273 0.109 0.469 0.109h0.729l-2.013-5.562zM21.064 22.22h-0.476c-0.194 0-0.353 0.043-0.462 0.153s-0.15 0.269-0.15 0.459v2.457c0 0.082 0.004 0.173 0.009 0.262-0.073-0.142-0.157-0.294-0.239-0.415l-1.767-2.916h-1.142v5.563h0.576c0.192 0 0.351-0.040 0.46-0.15s0.15-0.269 0.15-0.462v-2.449c0-0.081-0.003-0.171-0.009-0.259 0.073 0.143 0.157 0.294 0.24 0.412l1.774 2.907h1.133v-5.563h-0.097z"></path>
<path fill="#000" d="M2.664 31.176l-0.267-0.722c-0.035-0.095-0.078-0.262-0.078-0.262h-0.006s-0.043 0.167-0.078 0.262l-0.265 0.722h0.693zM2.21 29.974h0.216l0.767 2.022h-0.060c-0.144 0-0.183-0.029-0.235-0.167l-0.18-0.478h-0.802l-0.183 0.478c-0.052 0.138-0.088 0.167-0.232 0.167h-0.058l0.766-2.022zM6.093 30.44c-0.078-0.166-0.298-0.356-0.622-0.356-0.449 0-0.794 0.351-0.794 0.84 0 0.483 0.342 0.872 0.803 0.872 0.219 0 0.395-0.073 0.504-0.153 0.133-0.098 0.273 0.015 0.273 0.015s-0.279 0.328-0.78 0.328c-0.593 0-1.010-0.472-1.010-1.061 0-0.584 0.429-1.030 0.998-1.030 0.288 0 0.642 0.128 0.777 0.433 0.063 0.138 0.071 0.204 0.071 0.204s-0.168 0.020-0.22-0.091zM8.744 31.176l-0.268-0.722c-0.034-0.095-0.078-0.262-0.078-0.262h-0.006s-0.043 0.167-0.078 0.262l-0.265 0.722h0.694zM8.29 29.974h0.216l0.767 2.022h-0.060c-0.144 0-0.183-0.029-0.235-0.167l-0.179-0.478h-0.803l-0.182 0.478c-0.052 0.138-0.088 0.167-0.232 0.167h-0.059l0.766-2.022zM11.199 31.817h-0.339c-0.040 0-0.063-0.020-0.063-0.063v-1.602h0.403c0.495 0 0.826 0.294 0.826 0.831 0 0.541-0.328 0.834-0.826 0.834zM11.219 29.974h-0.624v1.847c0 0.124 0.052 0.175 0.175 0.175h0.449c0.61 0 1.015-0.368 1.015-1.013 0-0.639-0.406-1.010-1.015-1.010zM14.801 31.817h-0.71c-0.040 0-0.063-0.020-0.063-0.063v-0.687h0.759v-0.178h-0.759v-0.737h0.944v-0.003c0-0.124-0.052-0.176-0.176-0.176h-0.97v1.847c0 0.124 0.052 0.175 0.175 0.175h0.875c0.124 0 0.175-0.052 0.175-0.175v-0.003h-0.25zM16.586 29.974h0.204l0.535 1.177c0.025 0.052 0.059 0.13 0.091 0.21l0.010 0.028h0.006s0.052-0.135 0.098-0.239l0.535-1.177h0.204l0.176 2.022h-0.058c-0.124 0-0.167-0.052-0.175-0.175l-0.095-1.228c-0.009-0.109-0.009-0.282-0.009-0.282h-0.006s-0.055 0.178-0.104 0.282l-0.48 1.027h-0.181l-0.478-1.027c-0.046-0.101-0.106-0.288-0.106-0.288h-0.006s0 0.178-0.009 0.288l-0.095 1.228c-0.009 0.124-0.052 0.175-0.175 0.175h-0.047l0.165-2.022zM20.356 31.116l-0.704-1.142h0.060c0.138 0 0.19 0.020 0.276 0.161l0.342 0.572c0.033 0.054 0.074 0.129 0.113 0.205l0.011 0.023h0.006s0.060-0.121 0.124-0.227l0.342-0.572c0.086-0.141 0.138-0.161 0.276-0.161h0.060l-0.704 1.142v0.88h-0.201v-0.88z"></path>
<path fill="#231f1f" d="M1.77 28.86h19.47v-0.088h-19.47v0.088z"></path>
<path fill="#9a9188" d="M13.558 20.54c-1.094 0-2.158-0.002-3.222 0.002-0.175 0.001-0.186-0.069-0.145-0.215 0.215-0.779 0.173-1.577 0.168-2.372-0.001-0.169-0.024-0.329-0.136-0.461-0.722-0.847-0.968-1.871-1.126-2.938-0.194-1.315-0.561-2.58-1.177-3.766-0.037-0.072-0.069-0.148-0.098-0.225-0.066-0.172-0.113-0.363 0.076-0.471 0.194-0.11 0.402-0.054 0.531 0.127 0.163 0.227 0.297 0.475 0.442 0.716 0.235 0.391 0.456 0.792 0.745 1.147 0.084 0.103 0.191 0.261 0.337 0.182 0.124-0.068 0.044-0.233 0.025-0.357-0.163-1.064-0.281-2.133-0.362-3.206-0.019-0.247 0.041-0.486 0.336-0.532 0.289-0.045 0.336 0.19 0.39 0.397 0.25 0.961 0.498 1.923 0.753 2.883 0.028 0.106 0.032 0.284 0.162 0.281 0.155-0.003 0.146-0.186 0.169-0.305 0.123-0.633 0.124-1.279 0.19-1.919 0.062-0.593 0.107-1.188 0.145-1.783 0.020-0.307 0.167-0.488 0.468-0.511 0.255-0.019 0.392 0.189 0.392 0.554-0.002 1.171-0.008 2.341-0.005 3.512 0 0.179-0.043 0.452 0.153 0.489 0.17 0.032 0.212-0.241 0.275-0.398 0.365-0.914 0.848-1.772 1.245-2.671 0.103-0.234 0.304-0.297 0.524-0.218 0.287 0.103 0.234 0.351 0.168 0.566-0.985 3.399-1.346 4.511-1.714 5.621l0.654-2.279c-0.119 0.368-0.134 0.733-0.038 1.105 0.015 0.057 0.026 0.115 0.049 0.168 0.071 0.169 0.101 0.396 0.318 0.425 0.195 0.026 0.291-0.169 0.404-0.298 0.32-0.367 0.581-0.806 1.13-0.882 0.234-0.033 0.465-0.051 0.695 0.022 0.299 0.095 0.339 0.223 0.121 0.44-0.115 0.115-0.242 0.225-0.382 0.308-0.623 0.366-1.025 0.905-1.293 1.566-0.14 0.346-0.315 0.679-0.483 1.013-0.143 0.284-0.304 0.586-0.559 0.757-0.479 0.322-0.522 0.779-0.544 1.275-0.034 0.75-0.011 1.494 0.224 2.25z"></path>
<path fill="#9eb63a" d="M5.365 8.666c0.342 0.398 0.683 0.796 1.027 1.196-0.743 0.29-1.712 0.016-2.233-0.642-0.568-0.719-0.769-1.562-0.791-2.459-0.003-0.108-0.001-0.211 0.15-0.229 1.205-0.141 3.228 0.908 3.247 2.506 0.001 0.059 0.006 0.118-0.002 0.175-0.021 0.146 0.007 0.354-0.124 0.409s-0.212-0.145-0.313-0.234c-0.299-0.261-0.591-0.53-0.886-0.797-0.090-0.040-0.094 0.005-0.074 0.074zM14.776 6.233c-0.49 0.313-0.825 0.78-1.221 1.191-0.396-0.577-0.215-1.647 0.389-2.241 0.534-0.526 1.197-0.806 1.923-0.948 0.604-0.118 0.617-0.104 0.617 0.527 0.001 0.843-0.287 1.584-0.83 2.219-0.49 0.573-1.115 0.817-1.924 0.686 0.364-0.5 0.705-0.967 1.046-1.434zM19.101 13.821c-0.421-0.345-0.936-0.508-1.417-0.741 0.399-0.521 1.406-0.672 2.111-0.307 0.624 0.323 1.068 0.832 1.406 1.438 0.281 0.504 0.272 0.52-0.29 0.704-0.751 0.246-1.496 0.206-2.22-0.093-0.654-0.27-1.053-0.756-1.172-1.515l1.583 0.514zM11.077 4.577c-0.17 0.529-0.238 1.072-0.3 1.615-0.010 0.088 0.036 0.212-0.063 0.256-0.115 0.052-0.19-0.066-0.261-0.132-0.598-0.552-0.794-1.219-0.549-2.002 0.229-0.733 0.67-1.328 1.216-1.855 0.114-0.11 0.198-0.136 0.308 0.010 0.674 0.89 1.007 1.868 0.758 2.986-0.108 0.485-0.417 0.825-0.873 1.030-0.192 0.086-0.284 0.104-0.268-0.175 0.034-0.576 0.131-1.151 0.031-1.732zM8.833 8.469c-0.175-0.523-0.344-1.026-0.513-1.529-0.056 0.458 0.092 0.874 0.178 1.3 0.018 0.089 0.086 0.197 0.002 0.262-0.080 0.062-0.179-0.019-0.26-0.056-0.731-0.328-1.173-0.878-1.243-1.689-0.065-0.758 0.142-1.459 0.489-2.125 0.056-0.108 0.104-0.199 0.264-0.125 1.099 0.515 1.988 2.098 1.6 3.207-0.1 0.287-0.229 0.559-0.516 0.755zM5.932 12.387c0.433 0.409 0.865 0.818 1.311 1.24-0.428 0.265-0.987 0.279-1.452-0.001-1.027-0.617-1.545-1.559-1.644-2.743-0.014-0.17 0.053-0.223 0.226-0.205 0.889 0.093 1.722 0.34 2.438 0.89 0.557 0.428 0.78 1.004 0.669 1.703-0.011 0.068 0.002 0.155-0.076 0.182-0.080 0.027-0.118-0.056-0.166-0.101-0.393-0.368-0.8-0.719-1.236-1.036-0.018-0.022-0.038-0.027-0.058-0.012-0.030 0.023-0.039 0.051-0.013 0.083zM6.421 5.097c-0.579-0.246-1.048-0.651-1.645-0.782 0.45 0.396 0.955 0.708 1.459 1.020-0.298 0.416-1.227 0.51-1.71 0.221-0.855-0.509-1.283-1.331-1.597-2.231-0.047-0.134 0.027-0.19 0.147-0.222 1.046-0.277 2.026-0.155 2.872 0.551 0.43 0.359 0.575 0.857 0.474 1.442zM15.269 11.424c0.581-0.202 1.152-0.33 1.675-0.595-0.582 0.036-1.133 0.233-1.738 0.345 0.116-0.555 0.42-0.922 0.9-1.115 0.872-0.351 1.738-0.297 2.581 0.118 0.128 0.063 0.228 0.123 0.097 0.282-0.56 0.679-1.186 1.271-2.079 1.471-0.56 0.126-1.030-0.060-1.436-0.507zM13.99 2.182c-0.226 0.452-0.313 0.945-0.446 1.424-0.447-0.195-0.744-0.791-0.632-1.308 0.175-0.814 0.711-1.376 1.345-1.865 0.128-0.099 0.185-0.025 0.246 0.072 0.452 0.705 0.617 1.459 0.376 2.275-0.124 0.419-0.406 0.703-0.81 0.866-0.217 0.088-0.304 0.027-0.252-0.217 0.087-0.41 0.181-0.82 0.173-1.247zM8.453 2.836c0.167 0.358 0.334 0.715 0.502 1.075-0.549 0.107-1.111-0.202-1.355-0.755-0.277-0.626-0.244-1.276-0.122-1.93 0.026-0.141 0.092-0.171 0.221-0.127 0.801 0.272 1.437 0.737 1.752 1.549 0.163 0.421 0.093 0.824-0.237 1.213l-0.688-1.099c-0.087-0.037-0.091 0.007-0.072 0.074zM19.724 8.349c0.48-0.198 0.957-0.316 1.447-0.636-0.596 0.019-1.055 0.231-1.54 0.326-0.001-0.513 0.227-0.878 0.712-1.056 0.744-0.274 1.471-0.187 2.171 0.177 0.134 0.070 0.158 0.147 0.082 0.275-0.31 0.521-0.683 0.982-1.235 1.262-0.586 0.297-1.159 0.177-1.637-0.347zM7.483 16.118c0.263-0.093 0.525-0.191 0.791-0.276 0.092-0.030 0.193-0.144 0.285-0.047 0.083 0.086 0.001 0.201-0.024 0.298-0.112 0.451-0.412 0.727-0.85 0.842-0.558 0.147-1.11 0.069-1.656-0.091-0.162-0.047-0.208-0.123-0.14-0.278 0.314-0.711 0.798-1.228 1.588-1.395 0.4-0.085 0.721 0.067 1.036 0.344l-1.099 0.533c-0.020 0.018-0.027 0.038-0.014 0.058 0.022 0.034 0.051 0.031 0.082 0.012zM2.245 11.904c0.432 0.152 0.853 0.036 1.27 0.073-0.077 0.449-0.465 0.797-0.944 0.83-0.694 0.047-1.27-0.253-1.813-0.641-0.109-0.078-0.107-0.146-0.031-0.26 0.383-0.572 1.437-0.98 2.088-0.797 0.332 0.093 0.571 0.293 0.733 0.64l-1.304 0.155zM17.173 8.023c-0.241 0.183-0.481 0.365-0.724 0.55-0.173-0.471 0.022-1.042 0.483-1.37 0.49-0.35 1.054-0.479 1.647-0.512 0.197-0.011 0.246 0.070 0.212 0.246-0.143 0.725-0.466 1.346-1.082 1.776-0.355 0.248-0.744 0.315-1.177 0.067 0.25-0.237 0.484-0.46 0.718-0.682 0.015-0.030 0.045-0.082 0.038-0.089-0.038-0.039-0.075 0.008-0.114 0.015zM2.68 8.483c-0.419 0.135-0.829 0.216-1.272 0.44 0.425 0.063 0.75-0.071 1.084-0.115 0.084-0.011 0.191-0.102 0.256-0.004 0.054 0.081-0.015 0.18-0.049 0.266-0.142 0.359-0.426 0.561-0.787 0.632-0.593 0.117-1.162 0.027-1.695-0.275-0.191-0.108-0.248-0.212-0.098-0.407 0.281-0.367 0.595-0.696 1.011-0.907 0.584-0.296 1.1-0.175 1.55 0.371zM18.575 4.646c4.447-2.158 4.165-2.007 3.882-1.856l-4.744 2.309c-0.147-0.431 0.034-0.905 0.457-1.145 0.532-0.302 1.11-0.326 1.701-0.253 0.16 0.020 0.226 0.095 0.183 0.258-0.168 0.639-0.503 1.157-1.102 1.465-0.395 0.203-0.786 0.175-1.176-0.104l0.913-0.66c-0.027-0.090-0.075-0.013-0.113-0.015zM16.725 15.863c-0.344-0.158-0.688-0.316-1.031-0.475 0.294-0.442 0.86-0.612 1.382-0.392 0.657 0.277 1.090 0.794 1.443 1.391 0.096 0.162 0.073 0.276-0.108 0.353-0.71 0.298-1.425 0.358-2.136 0.023-0.469-0.22-0.72-0.601-0.74-1.16l1.258 0.374c0.064-0.088-0.041-0.078-0.067-0.114zM2.476 6.651c-0.326-0.088-0.58-0.31-0.989-0.309l0.943 0.501c-0.33 0.296-0.675 0.343-1.038 0.216-0.599-0.21-0.987-0.644-1.234-1.22-0.071-0.165-0.022-0.234 0.142-0.267 0.476-0.096 0.952-0.128 1.424 0.013 0.5 0.149 0.77 0.53 0.753 1.066zM5.251 14.498c-0.238 0.026-0.431 0.045-0.623 0.070-0.18 0.023-0.359 0.052-0.53 0.128 0.314 0 0.628 0.005 0.942-0.002 0.2-0.004 0.224 0.071 0.125 0.226-0.182 0.286-0.45 0.446-0.778 0.479-0.584 0.059-1.106-0.108-1.572-0.466-0.163-0.125-0.168-0.218-0.006-0.349 0.424-0.342 0.865-0.641 1.433-0.668 0.435-0.021 0.756 0.164 1.010 0.582zM17.288 2.102c-0.424 0.157-0.718 0.386-1.059 0.574-0.11-0.449 0.043-0.765 0.376-0.994 0.445-0.307 0.942-0.388 1.472-0.298 0.185 0.031 0.265 0.095 0.198 0.302-0.131 0.405-0.299 0.784-0.608 1.089-0.298 0.294-0.65 0.345-1.036 0.234-0.074-0.022-0.175-0.063-0.199-0.122-0.037-0.092 0.083-0.12 0.141-0.167 0.222-0.179 0.475-0.324 0.714-0.618zM19.906 10.672c0.366-0.055 0.703 0.128 1.099 0.039-0.353-0.164-0.703-0.167-1.031-0.255 0.204-0.486 0.732-0.693 1.305-0.497 0.468 0.161 0.839 0.465 1.167 0.83 0.113 0.126 0.13 0.209-0.027 0.316-0.549 0.374-1.141 0.534-1.791 0.352-0.385-0.108-0.644-0.359-0.721-0.784zM10.423 1.293c0.044 0.17 0.227 0.262 0.255 0.444-0.513 0.102-0.821-0.080-1.041-0.622-0.134-0.33-0.284-0.776-0.043-0.988s0.633 0.071 0.918 0.242c0.477 0.285 0.586 0.658 0.383 1.211-0.191-0.062-0.235-0.279-0.39-0.371-0.099-0.041-0.11 0.003-0.081 0.084zM6.289 2.677c-0.474 0-0.727-0.17-0.853-0.56-0.118-0.368-0.079-0.737 0.012-1.104 0.029-0.117 0.082-0.177 0.221-0.153 0.451 0.078 1.049 0.719 1.075 1.179 0.012 0.213-0.032 0.373-0.222 0.534-0.148-0.258-0.3-0.469-0.443-0.718-0.027 0.297 0.15 0.531 0.211 0.822z"></path>
</svg>
