<!-- Generated by IcoMoon.io -->
<svg version="1.1" xmlns="http://www.w3.org/2000/svg" width="32" height="32" viewBox="0 0 32 32">
<title>louis</title>
<path fill="#fff" d="M23.489 27.283c0.011 0 0.776-0.194 0.776-0.194 0.947-0.24 1.552-0.388 1.905-0.559l0.308-0.148 0.183-0.297c0.057-0.091 1.232-2.088 1.825-4.871 0.171-0.148 0.787-0.719 0.787-0.719l0.023-0.183 0.023-0.251c0.023-0.228 0.034-0.456 0.034-0.696 0-0.411-0.034-0.844-0.103-1.289 1.369-0.764 1.962-1.86 2.327-2.761 0.297-0.73 0.445-1.552 0.445-2.396s-0.148-1.711-0.433-2.555c-0.468-1.358-1.529-3.286-3.924-4.7-1.494-0.878-3.594-1.255-5.636-1.004-2.361 0.297-4.392 1.415-5.727 3.137-0.103 0.137-0.205 0.274-0.297 0.422-0.011 0-0.046 0.011-0.046 0.011-7.564 1.186-13.542 6.103-13.793 6.309l-2.168 1.803 2.806 0.228c4.94 0.399 8.442 2.122 10.507 3.502 2.259 1.517 3.354 2.955 3.365 2.966l0.73 0.992 0.935-0.81c0.16-0.137 0.308-0.297 0.433-0.468l0.034 0.034 0.217 0.183c0.137 0.114 0.251 0.205 0.399 0.376 0.034 0.080 0.057 0.171 0.057 0.274 0 0.251-0.034 0.319-0.103 0.479l-0.034 0.080c-0.080 0.194-0.228 0.468-0.24 0.479l-0.228 0.422 4.175 2.35z"></path>
<path fill="#13264b" d="M19.246 21.647c0.011 0.011 0.034 0.023 0.046 0.046v-0.011s-0.023-0.011-0.046-0.034zM26.319 14.768l-0.023 0.023c0-0.011 0.011-0.023 0.023-0.023z"></path>
<path fill="#c9af74" d="M27.391 6.086c-2.67-1.574-7.951-1.597-10.724 2.019-0.137 0.183-0.262 0.376-0.388 0.57-0.125 0.023-0.205 0.046-0.262 0.046-7.404 1.164-13.291 5.989-13.542 6.195l-1.244 1.038 1.62 0.125c9.788 0.787 14.18 6.605 14.215 6.662l0.422 0.57 0.536-0.468c0.297-0.251 0.502-0.548 0.639-0.844 0.137 0.125 0.285 0.251 0.456 0.411 0.251 0.217 0.433 0.319 0.707 0.65 0.091 0.171 0.125 0.354 0.125 0.536 0 0.399-0.080 0.525-0.171 0.742s-0.251 0.525-0.251 0.525l3.582 2.008 0.24-0.068 0.776-0.205c0.89-0.217 1.506-0.376 1.814-0.525l0.183-0.091 0.103-0.171c0.046-0.091 1.244-2.099 1.791-4.871 0.194-0.183 0.764-0.696 0.764-0.696l0.023-0.251c0.023-0.217 0.034-0.433 0.034-0.65 0-0.536-0.057-1.061-0.148-1.552 1.426-0.673 2.019-1.711 2.407-2.67 1.038-2.521 0.217-6.719-3.708-9.035z"></path>
<path fill="#13264b" d="M30.175 10.159c-2.27-5.476-8.488-4.381-8.488-4.381h0.046c0.319-0.023 2.168-0.137 4.016 0.627 1.62 0.673 3.434 2.339 3.879 4.54 0.103 0.525 0.148 1.004 0.148 1.449v0.114c-0.023 1.346-0.422 2.259-0.559 2.544-0.183 0.388-0.639 0.947-0.947 1.175-0.262 0.194-0.502 0.274-0.673 0.274-0.034 0-0.068 0-0.103-0.011-0.034 0-0.057-0.011-0.091-0.023-0.171-0.080-0.228-0.285-0.627-0.833-0.262-0.365-0.593-0.719-0.593-0.719 0.034-0.023 0.057-0.057 0.091-0.091 0.011-0.011 0.023-0.034 0.046-0.046 0.034-0.034 0.068-0.080 0.103-0.126 0.091-0.126 0.171-0.285 0.24-0.456 0-0.011 0-0.011 0.011-0.023 0.023-0.057 0.034-0.114 0.057-0.171 0.319-1.129-0.034-2.898-1.46-4.039-1.517-1.221-3.16-1.312-4.495-0.787-2.236 0.901-3.594 3.594-1.996 5.795 0.776 1.072 2.031 1.141 2.818 0.536 0.73-0.559 1.221-2.282-0.582-3.206 1.449-0.126 3.206 1.609 2.339 3.833-0.068 0.16-0.137 0.319-0.217 0.456-1.255 2.111-4.677 1.882-6.332-0.091-1.609-1.917-1.871-4.483-1.107-6.628 0.057-0.16 0.114-0.308 0.183-0.456-6.605 1.437-10.895 5.442-10.895 5.442 9.252 1.917 12.606 7.495 12.606 7.495 0.342-0.297 0.525-0.696 0.639-1.015-0.639-1.050-0.365-2.031-0.365-2.031 0.137 0.707 0.399 1.221 0.662 1.597 0.114 0.16 0.616 0.65 0.719 0.742 0.034 0.023 0.046 0.034 0.046 0.034v0.011c0.468 0.411 1.015 0.867 1.107 1.050 0.502 0.89-0.023 1.917-0.023 1.917l2.795 1.529c0.627-0.171 2.088-0.491 2.487-0.684 0 0 1.244-2.076 1.757-4.871l0.73-0.662c0.274-0.764-0.205-2.453-0.205-2.453 0.057-0.011 0.125-0.034 0.183-0.057 0.148-0.046 0.297-0.114 0.433-0.194 1.597-0.89 3.057-3.639 1.62-7.107z"></path>
<path fill="#fff" d="M29.764 12.395c0-0.434-0.046-0.924-0.148-1.449-0.433-2.202-2.247-3.867-3.879-4.54-1.848-0.764-3.696-0.662-4.016-0.627-0.080 0.011-0.148 0.023-0.228 0.034-2.521 0.354-4.050 2.156-4.050 2.156 2.282-1.78 5.704-1.996 7.963-1.061 2.259 0.924 3.902 2.806 4.335 5.613v-0.023c0.023-0.046 0.023-0.068 0.023-0.103zM22.417 23.392c0.023-0.114 0.354-0.137 0.354-0.137 0.228 0.821-0.125 1.346-0.148 1.415-0.023-0.365 0.046-1.050-0.205-1.278zM16.804 16.513c-1.609-1.917-1.871-4.483-1.107-6.628-0.456 0.707-1.517 2.806-0.205 5.704 1.586 3.514 5.921 3.651 7.381 1.449 0.103-0.148 0.183-0.297 0.262-0.445-1.255 2.122-4.677 1.882-6.332-0.080zM25.132 19.708c0-0.285 0.24-0.525 0.525-0.525h0.023c-0.057-0.285-0.194-0.605-0.433-0.924 0 0 0.023 0.308-0.046 0.582-0.262 0.137-0.445 0.422-0.445 0.742 0 0.468 0.376 0.844 0.844 0.844 0 0 0.034-0.068 0.068-0.194-0.297 0-0.536-0.24-0.536-0.525z"></path>
<path fill="#13264b" d="M25.714 19.936c-0.011 0.011-0.011 0.023-0.023 0.046-0.103 0.046-0.285 0-0.354-0.16 0.194 0.114 0.342-0.011 0.388-0.046l0.011-0.011s0.011 0.080-0.023 0.171z"></path>
<path fill="#fff" d="M25.737 19.753l-0.011 0.011c-0.046 0.034-0.194 0.16-0.388 0.046 0.068 0.171 0.251 0.205 0.354 0.16 0.011-0.011 0.011-0.023 0.023-0.046 0.034-0.080 0.023-0.171 0.023-0.171z"></path>
<path fill="#fff" d="M27.357 19.616c0.068-2.658-2.156-4.426-2.156-4.426s1.631 2.031 1.437 4.415l-0.445 0.411c0.011 0.65-0.023 1.882-0.65 3.251-0.65-1.175-2.088-1.951-2.67-2.099-0.399 0.228-1.289 0.719-1.814 1.289 0.091 0.125 0.217 0.468 0.24 0.57 0.114 0.65 0.034 1.129-0.068 1.472 0 0 0.992 0.559 0.981 0.525 0.274-0.935-0.091-1.358-0.365-1.848 0.262-0.16 0.89-0.513 1.186-0.627 0.297 0.399 0.445 1.072 0.125 2.031-0.091 0.285-0.228 0.57-0.319 0.776 0 0.011 0.388 0.217 0.388 0.205 0.502-0.103 0.958-0.445 1.141-0.924 0.057-0.148 0.034-0.251 0.011-0.365-0.046 0.068-0.114 0.16-0.194 0.217-0.125-0.297-0.125-0.536 0.034-0.719 0.080-0.091 0.183-0.125 0.297-0.125 0.171-0.011 0.297 0.103 0.354 0.228 0.251 0.616-0.331 1.255-0.331 1.255s0.548-0.023 0.707-0.103c0.331-0.662 1.335-2.795 1.62-4.963l0.491-0.445z"></path>
</svg>
