<!-- Generated by IcoMoon.io -->
<svg version="1.1" xmlns="http://www.w3.org/2000/svg" width="32" height="32" viewBox="0 0 32 32">
<title>sloggi</title>
<path fill="#25b2ee" d="M28.695 21.371v-8.076c0.719 1.401 1.071 3.24 1.087 4.765-0 0.811-0.319 2.12-1.087 3.31zM28.695 12.143l1.763 3.965 1.033-0.465-2.796-6.285v2.786zM28.695 9.358v2.786l-1.087-2.445 1.039-0.454 0.049 0.114zM28.695 13.295c-0.13-0.249-0.271-0.481-0.417-0.703-0.784-1.136-1.85-1.991-3.289-1.991v1.206c1.244 0.005 2.25 0.984 2.25 2.212 0 1.249-1.006 2.261-2.25 2.266v1.206c1.439 0 2.667-0.882 3.186-2.137 0.184 0.536 0.362 1.379 0.362 2.667 0 2.245-1.563 4.176-3.548 4.717v1.233c1.753-0.373 2.943-1.433 3.705-2.602v-8.076zM26.807 7.87c0-0.346 0.287-0.627 0.633-0.627s0.628 0.281 0.628 0.627-0.281 0.638-0.628 0.638c-0.346 0-0.633-0.292-0.633-0.638zM24.99 10.602v1.206c-0.005 0-0.011-0.005-0.011-0.005-1.233 0-2.239 1.006-2.239 2.239 0 1.249 1.006 2.245 2.239 2.245h0.011v1.206h-0.011c-1.904 0-3.445-1.542-3.445-3.451 0-1.904 1.542-3.446 3.445-3.446 0 0 0.005 0.005 0.011 0.005zM24.99 22.74c-0.362 0.097-0.73 0.151-1.109 0.151-1.99 0-3.094-0.849-3.608-1.341 0.795-1.163 1.228-2.542 1.287-4.057 0.049-1.255-0.238-2.418-0.703-3.456-0.552-1.233-1.742-2.12-3.175-2.12v1.206c1.239 0 2.245 1.006 2.245 2.245 0 1.233-1.006 2.245-2.245 2.245v1.201c1.066 0 2.017-0.481 2.65-1.244-0.049 1.698-1.012 3.646-2.65 4.841v1.477c0.649-0.357 1.239-0.817 1.752-1.341 0.622 0.503 2.083 1.574 4.165 1.574 0.498-0.005 0.957-0.054 1.39-0.146v-1.233zM17.682 11.916v1.206c-1.244 0-2.245 1.006-2.245 2.245 0 1.233 1.001 2.245 2.245 2.245v1.201c-1.904 0-3.446-1.542-3.446-3.446 0-1.909 1.542-3.451 3.446-3.451zM17.682 22.41v1.477c-0.995 0.546-2.126 0.871-3.305 0.871-2.229 0-4.381-1.087-5.674-2.84v-1.823l0.335 0.108c0.795 1.753 3.013 3.316 5.241 3.316 1.325 0 2.472-0.433 3.402-1.109zM8.703 18.012v-1.607c0.406 0.552 1.066 0.909 1.807 0.909 1.239 0 2.245-1.001 2.245-2.245 0-1.239-1.006-2.245-2.245-2.245-0.741 0-1.401 0.362-1.807 0.92v-1.607c0.513-0.323 1.138-0.514 1.807-0.514 0 0 0 0 0 0v0c1.899 0 3.446 1.547 3.446 3.446 0 1.904-1.547 3.456-3.446 3.456-0.669-0-1.293-0.191-1.821-0.522l0.014 0.008zM8.703 8.92v-1.347l0.433 0.162-0.433 1.185zM5.295 10.239c0.508 0.362 0.844 0.79 0.844 0.79l-0.525 1.282s-0.065-0.103-0.319-0.389v-1.682zM8.703 7.573l-0.709-0.276-2.699 7.427v2.645l0.254 0.097 3.154-8.546v-1.347h-0zM8.703 12.138v1.607c-0.276 0.368-0.438 0.833-0.438 1.325 0 0.503 0.162 0.963 0.438 1.336v1.607c-0.984-0.611-1.639-1.698-1.639-2.943 0-1.233 0.654-2.321 1.639-2.932zM8.703 20.095v1.823c-0.465-0.633-0.822-1.358-1.028-2.147l1.028 0.325zM0.763 13.301s0.070 0.373 0.617 1.049c0.552 0.676 1.044 0.903 1.401 0.903 0.346 0 0.622-0.184 0.66-0.584 0.022-0.389-0.638-1.363-0.638-1.363s-0.703-0.855-0.703-1.758c0-0.898 0.719-1.812 1.872-1.812 0.492 0 0.952 0.233 1.325 0.503v1.682c-0.092-0.108-0.216-0.238-0.368-0.4-0.563-0.595-1.055-0.59-1.352-0.362-0.298 0.222-0.287 0.687 0.33 1.558 0.611 0.865 0.828 1.623 0.828 2.023 0 0.395-0.449 1.796-2.028 1.796-1.585 0-2.705-2.007-2.705-2.007l0.763-1.228zM5.295 14.723l-0.849 2.32 0.849 0.325v-2.645zM30.978 10.207c0.568 0 1.022-0.449 1.022-1.022 0-0.563-0.454-1.011-1.022-1.011-0.005 0-0.005 0.005-0.005 0.005v0.151s0-0.005 0.005-0.005c0.46 0 0.86 0.384 0.86 0.86 0 0.487-0.4 0.865-0.86 0.865h-0.005v0.157h0.005zM30.972 9.287v-0.211c0.141 0 0.346 0.005 0.346-0.157 0-0.119-0.146-0.135-0.276-0.135h-0.070v-0.162h0.103c0.205 0 0.406 0.059 0.406 0.297 0 0.216-0.162 0.303-0.362 0.308l0.346 0.514h-0.195l-0.297-0.454zM30.972 8.179c-0.579 0-1.028 0.449-1.028 1.006 0 0.573 0.449 1.022 1.028 1.022v-0.157c-0.471 0-0.866-0.379-0.866-0.865 0-0.471 0.395-0.855 0.866-0.855v-0.151zM30.972 8.622v0.162h-0.222v0.287h0.184c0.011 0 0.022 0.005 0.038 0.005v0.211l-0.038-0.059h-0.184v0.514h-0.157v-1.12h0.379z"></path>
</svg>
